<?xml version="1.0" encoding="utf-8"?>
<svg version="1.1" id="Layer_1" x="0px" y="0px" viewBox="0 0 100.00002 149.99992" enable-background="new 0 0 365 560" width="100.00002" height="149.99992" xmlns="http://www.w3.org/2000/svg">
  <g id="g833" transform="matrix(0.27360312,0,0,0.27546574,117.7678,2.4697842)" style="stroke-width:0.637446;stroke-miterlimit:4;stroke-dasharray:none">
    <path d="m -247.81106,513.26693 c 0,0 170.384429,-251.85323 170.384429,-334.61969 C -77.426631,56.838344 -163.80818,3.7077458 -247.81106,3.5204919 -331.81391,3.7077458 -417.946,56.684946 -417.946,178.49386 c 0,82.76641 170.13494,334.77307 170.13494,334.77307 z" id="path2" style="fill-opacity: 1; stroke: rgb(131, 150, 23); stroke-width: 24.9732; stroke-miterlimit: 4; stroke-dasharray: none; stroke-opacity: 1; fill: rgb(170, 170, 170);"/>
    <g transform="matrix(2.5009958,0,0,2.4840848,-388.66698,-2299.3619)" id="g2" style="fill:#ffffff;stroke:#ffffff;stroke-width:3.55291;stroke-dasharray:none"/>
  </g>
  <g transform="matrix(0.016674, 0, 0, -0.016674, -13.865344, 107.358978)" fill="#000000" stroke="none" style="">
    <path d="M5565 4937 c-220 -137 -682 -447 -697 -468 -10 -13 -38 -84 -63 -157 l-46 -133 20 -44 20 -44 -48 -40 c-26 -22 -67 -67 -91 -100 -36 -49 -48 -60 -65 -54 -43 13 -210 5 -285 -15 -41 -11 -82 -23 -90 -26 -11 -5 -36 30 -95 136 -44 78 -81 149 -83 158 -1 8 21 57 48 108 l51 92 85 0 c47 0 94 4 104 10 25 13 41 65 30 94 -20 54 -33 56 -317 56 -173 0 -270 -4 -287 -11 -50 -23 -57 -103 -13 -134 15 -11 48 -15 109 -15 49 0 88 -2 88 -5 0 -2 -12 -29 -27 -60 l-27 -55 -502 0 -502 0 -119 222 c-83 157 -125 227 -143 236 -18 9 -66 12 -175 10 -137 -3 -155 -6 -206 -29 -104 -49 -174 -146 -185 -258 -6 -55 -5 -61 19 -85 34 -34 79 -34 112 -1 15 14 25 36 25 51 0 48 37 108 79 133 35 19 52 21 141 19 l102 -3 100 -185 101 -185 -78 -150 c-43 -82 -79 -151 -80 -153 -1 -1 -38 8 -81 20 -104 30 -314 32 -414 5 -264 -72 -475 -284 -552 -553 -29 -102 -31 -285 -5 -384 107 -402 499 -652 901 -576 158 31 274 94 401 221 73 73 100 108 138 181 69 134 90 236 85 394 -9 216 -73 358 -233 516 l-92 91 49 98 c41 81 52 95 62 84 7 -8 118 -209 246 -447 128 -238 242 -439 253 -447 17 -12 59 -15 202 -15 l180 0 17 -81 c10 -48 35 -118 62 -172 98 -202 261 -338 486 -409 64 -20 95 -23 215 -22 124 0 149 3 220 27 427 143 649 580 506 995 -49 140 -133 259 -251 353 -61 49 -208 129 -237 129 -28 0 -10 33 54 97 l66 67 16 -25 c9 -13 27 -36 41 -50 24 -24 32 -26 164 -33 133 -6 140 -6 189 18 29 13 205 127 392 253 316 212 340 230 343 259 3 26 -24 74 -149 270 -83 132 -159 245 -167 252 -25 20 -44 15 -117 -31z m-76 -452 c11 -126 21 -237 21 -246 0 -18 -49 -44 -60 -32 -4 4 -17 114 -29 243 l-22 235 28 22 c15 12 30 19 34 15 3 -4 16 -110 28 -237z m-164 101 c33 -24 69 -99 61 -130 -8 -31 -59 -66 -98 -66 -22 0 -36 11 -63 48 -19 26 -35 58 -35 72 0 66 83 113 135 76z m351 -88 c62 -74 63 -132 5 -163 -63 -32 -105 -12 -141 67 -19 43 -17 61 9 92 39 45 91 46 127 4z m-617 -254 c33 -28 52 -77 44 -117 -12 -59 -95 -101 -156 -78 l-29 11 32 30 c30 28 31 32 17 53 -15 22 -46 27 -79 12 -14 -6 -18 -2 -18 16 2 87 119 132 189 73z m-1094 -324 c41 -74 74 -139 75 -145 0 -5 -20 -26 -44 -46 -74 -59 -144 -149 -191 -244 -38 -78 -55 -129 -80 -247 l-5 -28 -143 0 -142 0 -195 357 c-107 196 -212 388 -232 425 l-37 68 460 -2 461 -3 73 -135z m-1527 -206 c28 -8 52 -17 52 -20 0 -4 -65 -125 -145 -270 -99 -179 -145 -273 -145 -294 0 -68 86 -105 133 -57 12 12 87 141 167 286 l144 263 67 -70 c108 -113 179 -282 179 -427 0 -221 -144 -449 -341 -543 -107 -51 -171 -65 -284 -64 -332 3 -595 272 -595 607 0 103 19 184 65 274 133 260 426 392 703 315z m2232 -10 c206 -61 363 -225 416 -434 23 -89 15 -261 -16 -347 -122 -347 -534 -508 -861 -337 -158 83 -277 242 -308 411 l-8 43 313 0 313 0 27 23 c19 17 27 33 26 54 0 20 -54 128 -146 298 -80 146 -146 268 -146 270 0 7 72 27 124 36 70 11 200 3 266 -17z m-442 -269 c49 -88 97 -175 106 -192 l17 -33 -232 0 -231 0 7 37 c11 61 44 138 86 203 46 71 138 165 150 153 4 -4 48 -80 97 -168z" style="stroke-opacity: 0.9; fill: rgb(255, 255, 255);"/>
    <path d="M5255 4530 c-7 -11 19 -65 36 -75 6 -4 15 -3 21 3 7 7 4 22 -12 46 -22 37 -34 44 -45 26z" style="stroke-opacity: 0.9; fill: rgb(255, 255, 255);"/>
    <path d="M5594 4456 c-7 -18 25 -76 41 -76 23 0 24 14 3 51 -23 41 -35 48 -44 25z" style="stroke-opacity: 0.9; fill: rgb(255, 255, 255);"/>
  </g>
</svg>